<svg xmlns="http://www.w3.org/2000/svg" xmlns:xlink="http://www.w3.org/1999/xlink" id="eSR6AVtWhMJ1" shape-rendering="geometricPrecision" text-rendering="geometricPrecision" project-id="a30d42cf2b904bf49ea2211c7dd7149d" export-id="5591e2f5217b476d83547bcf8d7fc9cf" cached="false" viewBox="849.83 484.13 443.29 449.02"><defs><linearGradient id="eSR6AVtWhMJ2-fill" x1="0.75" y1="0.066987" x2="0.25" y2="0.933013" spreadMethod="repeat" gradientUnits="objectBoundingBox" gradientTransform="translate(0 0)"><stop id="eSR6AVtWhMJ2-fill-0" offset="28%" stop-color="#000"/><stop id="eSR6AVtWhMJ2-fill-1" offset="55%" stop-color="#141414"/><stop id="eSR6AVtWhMJ2-fill-2" offset="72%" stop-color="#212121"/><stop id="eSR6AVtWhMJ2-fill-3" offset="88%" stop-color="#2f2f2f"/><stop id="eSR6AVtWhMJ2-fill-4" offset="100%" stop-color="#343434"/></linearGradient><linearGradient id="eSR6AVtWhMJ2-stroke" x1="0.291199" y1="0.053836" x2="0.733113" y2="0.93642" spreadMethod="pad" gradientUnits="objectBoundingBox" gradientTransform="translate(0 0)"><stop id="eSR6AVtWhMJ2-stroke-0" offset="0%" stop-color="#322424"/><stop id="eSR6AVtWhMJ2-stroke-1" offset="100%" stop-color="#fff"/></linearGradient></defs><ellipse rx="156.3" ry="156.3" transform="matrix(1.414878 0 0 1.433206 1071.470663 708.636172)" fill="url(#eSR6AVtWhMJ2-fill)" stroke="url(#eSR6AVtWhMJ2-stroke)"/><g transform="matrix(.1 0 0-.1-267.415604 1403.1)"><path d="M6802,8239c10-19,27-91,39-160c18-105,20-151,16-299-5-192-10-220-38-220-33,0-46,42-68,215-16,134-20,201-15,315c3,80,7,155,10,168c7,34,35,24,56-19Zm1006-120c7-24,24-78,37-119c30-89,47-217,43-320l-3-75h-35c-28,0-37,5-47,26-26,54-59,496-39,527c14,22,30,7,44-39Zm-269-965c-18-20-70-65-114-100-97-78-128-83-182-29-19,19-33,40-30,47c4,14,15,14,83,3c56-10,122,13,204,69c36,25,67,45,69,45c3,1-11-15-30-35Z" transform="translate(6184.67139-1683.46015)" fill="#fff"/><g transform="translate(617.46183-1465.90623)"><path d="M9163.9993,7255.66865c0,7-36,45-81,84-142,126-305,348-394,538-44,93-91,216-126,330-38,126-148,575-179,737-16,81-31,148-34,148-3-1-46-62-97-138-237-352-347-453-607-550-130-49-203-58-366-44-239,21-334,61-464,196-82,87-159,230-268,505l-14,34-43-154c-59-209-165-536-208-638-63-153-190-357-317-508-154-184-322-328-520-448-15-9-68.0729,100.00849-155.0722,250.67053v-42.21001l86.9993,95.87866c280,138,641,607,719,935c14,58,48,242,76,410c47,287,98,529,135,640c29,87,99,129,194,116c62-8,102-35,129-84c44-79,110-256,166-442c72-240,127-368,185-433c84-93,216-133,407-125c94,4,109,8,186,45c115,56,220,133,274,201c27,34,101,171,189,347c154.99999,313,212,399,299.99999,450c54.00001,32,90,28,141.00001-18c82-72,110-186,178.99999-734c41.00001-331,53.00001-398,105-600c41.00001-156,89.00001-290,146.00001-404c68.99999-139,213.99999-331,312-414" transform="matrix(1.031986 0 0 1.063993 5298.794946-639.231698)" fill="#fff"/></g></g></svg>