<svg xmlns="http://www.w3.org/2000/svg" xmlns:xlink="http://www.w3.org/1999/xlink" version="1.1" viewBox="156.85 278.42 469.85 281.98">
<defs>
<linearGradient id="linear0" gradientUnits="userSpaceOnUse" x1="0.75" y1="0.066987" x2="0.25" y2="0.933013" spreadMethod="repeat" gradientTransform="matrix(313.606879,0,0,313.605425,-156.803439,-156.802702)">
<stop offset="0.28" style="stop-color:rgb(0%,0%,0%);stop-opacity:1;"/>
<stop offset="0.55" style="stop-color:rgb(7.843137%,7.843137%,7.843137%);stop-opacity:1;"/>
<stop offset="0.72" style="stop-color:rgb(12.941176%,12.941176%,12.941176%);stop-opacity:1;"/>
<stop offset="0.88" style="stop-color:rgb(18.431373%,18.431373%,18.431373%);stop-opacity:1;"/>
<stop offset="1" style="stop-color:rgb(20.392157%,20.392157%,20.392157%);stop-opacity:1;"/>
</linearGradient>
<linearGradient id="linear1" gradientUnits="userSpaceOnUse" x1="0.291199" y1="0.053836" x2="0.733113" y2="0.93642" gradientTransform="matrix(313.606879,0,0,313.605425,-156.803439,-156.802702)">
<stop offset="0" style="stop-color:rgb(19.607843%,14.117647%,14.117647%);stop-opacity:1;"/>
<stop offset="1" style="stop-color:rgb(100%,100%,100%);stop-opacity:1;"/>
</linearGradient>
</defs>
<g id="surface1">
<path style="fill-rule:nonzero;fill:url(#linear0);stroke-width:1;stroke-linecap:butt;stroke-linejoin:miter;stroke:url(#linear1);stroke-miterlimit:4;" d="M 156.301289 0.0000106466 C 156.301289 -86.322105 86.320249 -156.301526 -0.000000000000113687 -156.301526 C -86.320249 -156.301526 -156.301289 -86.322105 -156.301289 0.0000106466 C -156.301289 86.322127 -86.320249 156.301547 -0.000000000000113687 156.301547 C 86.320249 156.301547 156.301289 86.322127 156.301289 0.0000106466 Z M 156.301289 0.0000106466 " transform="matrix(0.707893,0,0,0.717063,391,390.999992)"/>
<path style=" stroke:none;fill-rule:nonzero;fill:rgb(100%,100%,100%);fill-opacity:1;" d="M 370.878906 410.46875 C 371.378906 411.417969 372.230469 415.019531 372.828125 418.472656 C 373.730469 423.726562 373.828125 426.027344 373.628906 433.433594 C 373.378906 443.039062 373.128906 444.4375 371.726562 444.4375 C 370.078125 444.4375 369.425781 442.335938 368.324219 433.683594 C 367.527344 426.976562 367.324219 423.625 367.574219 417.921875 C 367.726562 413.917969 367.925781 410.167969 368.074219 409.515625 C 368.425781 407.816406 369.828125 408.316406 370.878906 410.46875 Z M 421.210938 416.472656 C 421.558594 417.671875 422.410156 420.375 423.0625 422.425781 C 424.5625 426.878906 425.414062 433.28125 425.210938 438.433594 L 425.0625 442.1875 L 423.3125 442.1875 C 421.910156 442.1875 421.460938 441.9375 420.960938 440.886719 C 419.660156 438.183594 418.007812 416.070312 419.007812 414.519531 C 419.707031 413.417969 420.507812 414.167969 421.210938 416.472656 Z M 407.75 464.753906 C 406.851562 465.753906 404.25 468.003906 402.046875 469.753906 C 397.195312 473.65625 395.644531 473.90625 392.941406 471.207031 C 391.992188 470.253906 391.289062 469.203125 391.441406 468.855469 C 391.640625 468.15625 392.191406 468.15625 395.59375 468.703125 C 398.394531 469.203125 401.699219 468.054688 405.800781 465.253906 C 407.601562 464 409.152344 463 409.253906 463 C 409.402344 462.949219 408.703125 463.75 407.75 464.753906 Z M 407.75 464.753906 "/>
<path style=" stroke:none;fill-rule:nonzero;fill:rgb(100%,100%,100%);fill-opacity:1;" d="M 490.292969 457.535156 C 490.292969 457.160156 488.433594 455.136719 486.109375 453.0625 C 478.777344 446.355469 470.359375 434.535156 465.765625 424.421875 C 463.492188 419.472656 461.066406 412.925781 459.261719 406.855469 C 457.296875 400.148438 451.617188 376.246094 450.019531 367.621094 C 449.191406 363.308594 448.417969 359.742188 448.261719 359.742188 C 448.109375 359.796875 445.886719 363.042969 443.253906 367.089844 C 431.015625 385.828125 425.335938 391.203125 411.914062 396.367188 C 405.199219 398.976562 401.433594 399.457031 393.015625 398.710938 C 380.675781 397.59375 375.769531 395.464844 369.058594 388.277344 C 364.824219 383.644531 360.847656 376.03125 355.222656 361.394531 L 354.496094 359.582031 L 352.277344 367.78125 C 349.230469 378.90625 343.757812 396.316406 341.539062 401.746094 C 338.285156 409.890625 331.726562 420.75 325.171875 428.789062 C 317.21875 438.582031 308.546875 446.25 298.320312 452.636719 C 297.546875 453.117188 294.808594 447.3125 290.316406 439.292969 L 290.316406 441.539062 L 294.808594 436.433594 C 309.265625 429.089844 327.902344 404.121094 331.929688 386.660156 C 332.652344 383.574219 334.410156 373.777344 335.855469 364.835938 C 338.28125 349.558594 340.914062 336.675781 342.824219 330.765625 C 344.324219 326.136719 347.9375 323.898438 352.84375 324.589844 C 356.042969 325.015625 358.109375 326.453125 359.503906 329.0625 C 361.773438 333.269531 365.183594 342.691406 368.074219 352.59375 C 371.792969 365.367188 374.628906 372.183594 377.625 375.640625 C 381.960938 380.59375 388.777344 382.722656 398.640625 382.296875 C 403.492188 382.082031 404.269531 381.871094 408.242188 379.902344 C 414.179688 376.921875 419.601562 372.820312 422.390625 369.203125 C 423.785156 367.390625 427.605469 360.097656 432.148438 350.730469 C 440.152344 334.066406 443.09375 329.488281 447.640625 326.773438 C 450.425781 325.070312 452.285156 325.285156 454.917969 327.730469 C 459.152344 331.566406 460.597656 337.632812 464.160156 366.804688 C 466.277344 384.425781 466.898438 387.992188 469.582031 398.746094 C 471.699219 407.050781 474.179688 414.183594 477.121094 420.253906 C 480.683594 427.652344 488.171875 437.871094 493.230469 442.289062 "/>
<path style=" stroke:none;fill-rule:nonzero;fill:rgb(0%,0%,0%);fill-opacity:1;" d="M 229.644531 516.617188 C 224.140625 517.917969 218.835938 521.671875 216.035156 526.125 C 211.683594 532.980469 211.683594 543.386719 216.035156 550.238281 C 221.890625 559.546875 235.097656 563.097656 245.753906 558.195312 C 249.507812 556.492188 254.109375 551.941406 255.910156 548.1875 C 258.863281 541.984375 258.863281 534.378906 255.910156 528.175781 C 254.109375 524.421875 249.507812 519.871094 245.753906 518.167969 C 240.953125 515.917969 234.796875 515.367188 229.644531 516.617188 Z M 243.503906 521.570312 C 246.804688 523.171875 250.558594 527.023438 252.058594 530.328125 C 252.960938 532.277344 253.160156 533.578125 253.160156 538.183594 C 253.160156 542.785156 252.960938 544.085938 252.058594 546.035156 C 250.558594 549.339844 246.804688 553.191406 243.453125 554.792969 C 240.953125 556.042969 240.101562 556.195312 235.398438 556.195312 C 230.644531 556.195312 229.84375 556.042969 227.292969 554.792969 C 223.640625 552.992188 219.789062 548.839844 218.4375 545.1875 C 216.984375 541.382812 216.984375 535.03125 218.386719 531.226562 C 219.4375 528.425781 222.339844 524.722656 224.941406 522.871094 C 227.941406 520.722656 231.296875 519.871094 236.199219 520.070312 C 239.902344 520.171875 241.203125 520.46875 243.503906 521.570312 Z M 243.503906 521.570312 "/>
<path style=" stroke:none;fill-rule:nonzero;fill:rgb(0%,0%,0%);fill-opacity:1;" d="M 238.25 525.722656 C 238.050781 525.925781 237.898438 526.875 237.898438 527.824219 C 237.898438 528.777344 237.550781 530.277344 237.097656 531.226562 C 236.347656 532.777344 236.347656 533.230469 237 535.53125 C 237.398438 536.980469 237.949219 538.183594 238.25 538.28125 C 240 538.882812 242.003906 530.675781 241 527.175781 C 240.601562 525.722656 239.050781 524.921875 238.25 525.722656 Z M 238.25 525.722656 "/>
<path style=" stroke:none;fill-rule:nonzero;fill:rgb(0%,0%,0%);fill-opacity:1;" d="M 226.042969 527.773438 C 225.839844 528.527344 225.640625 530.878906 225.640625 532.929688 C 225.640625 536.632812 225.640625 536.679688 226.992188 536.832031 C 228.644531 537.03125 229.394531 535.582031 229.34375 532.277344 C 229.292969 527.824219 226.890625 524.574219 226.042969 527.773438 Z M 226.042969 527.773438 "/>
<path style=" stroke:none;fill-rule:nonzero;fill:rgb(0%,0%,0%);fill-opacity:1;" d="M 239.601562 544.234375 C 238.148438 545.238281 233.847656 545.6875 231.996094 545.035156 C 230.746094 544.636719 230.394531 544.636719 230.195312 545.285156 C 229.746094 546.4375 229.746094 546.4375 232.546875 547.738281 C 235.796875 549.1875 237.648438 548.789062 239.550781 546.289062 C 241.75 543.285156 241.800781 542.683594 239.601562 544.234375 Z M 239.601562 544.234375 "/>
<path style=" stroke:none;fill-rule:nonzero;fill:rgb(0%,0%,0%);fill-opacity:1;" d="M 156.847656 538.183594 L 156.847656 559.945312 L 161.351562 559.945312 L 161.449219 543.085938 L 161.601562 526.175781 L 170.007812 540.332031 C 177.011719 552.089844 178.5625 554.441406 179.511719 554.441406 C 180.414062 554.441406 182.015625 551.992188 188.867188 540.382812 L 197.125 526.324219 L 197.273438 543.136719 L 197.375 559.945312 L 201.875 559.945312 L 201.875 516.417969 L 200.023438 516.417969 L 198.125 516.46875 L 188.917969 532.527344 C 180.613281 546.988281 179.613281 548.488281 179.011719 547.636719 C 178.660156 547.136719 174.359375 539.882812 169.503906 531.578125 L 160.699219 516.417969 L 156.847656 516.417969 Z M 156.847656 538.183594 "/>
<path style=" stroke:none;fill-rule:nonzero;fill:rgb(0%,0%,0%);fill-opacity:1;" d="M 268.417969 538.183594 L 268.417969 559.945312 L 272.921875 559.945312 L 273.023438 542.585938 L 273.171875 525.273438 L 287.082031 542.585938 L 300.988281 559.945312 L 304.941406 559.945312 L 304.941406 516.417969 L 300.4375 516.417969 L 300.4375 533.980469 C 300.4375 544.535156 300.238281 551.390625 299.988281 551.191406 C 299.738281 551.039062 293.386719 543.183594 285.878906 533.679688 L 272.269531 516.417969 L 268.417969 516.417969 Z M 268.417969 538.183594 "/>
<path style=" stroke:none;fill-rule:nonzero;fill:rgb(0%,0%,0%);fill-opacity:1;" d="M 318.953125 538.183594 L 318.953125 559.945312 L 323.453125 559.945312 L 323.453125 548.6875 L 327.855469 544.285156 C 330.257812 541.882812 332.359375 539.933594 332.511719 539.933594 C 332.609375 539.933594 336.664062 544.4375 341.464844 549.9375 L 350.171875 559.945312 L 352.921875 559.945312 C 355.472656 559.945312 355.574219 559.894531 354.875 559.046875 C 354.472656 558.59375 350.070312 553.441406 345.066406 547.589844 C 340.066406 541.734375 335.960938 536.78125 335.960938 536.53125 C 335.960938 536.28125 340.015625 531.726562 344.96875 526.472656 C 349.921875 521.171875 353.972656 516.769531 353.972656 516.617188 C 353.972656 516.519531 352.871094 516.417969 351.523438 516.417969 L 349.070312 516.417969 L 336.664062 529.425781 C 329.808594 536.582031 324.054688 542.433594 323.855469 542.433594 C 323.605469 542.433594 323.453125 536.582031 323.453125 529.425781 L 323.453125 516.417969 L 318.953125 516.417969 Z M 318.953125 538.183594 "/>
<path style=" stroke:none;fill-rule:nonzero;fill:rgb(0%,0%,0%);fill-opacity:1;" d="M 362.980469 538.183594 L 362.980469 559.945312 L 367.480469 559.945312 L 367.582031 543.085938 L 367.734375 526.175781 L 376.136719 540.332031 C 383.140625 552.089844 384.691406 554.441406 385.644531 554.441406 C 386.542969 554.441406 388.195312 551.992188 395 540.382812 L 403.253906 526.324219 L 403.40625 543.136719 L 403.503906 559.945312 L 408.007812 559.945312 L 408.007812 516.417969 L 406.15625 516.417969 L 404.253906 516.46875 L 395.050781 532.527344 C 386.746094 546.988281 385.742188 548.488281 385.144531 547.636719 C 384.792969 547.136719 380.492188 539.882812 375.636719 531.578125 L 366.832031 516.417969 L 362.980469 516.417969 Z M 362.980469 538.183594 "/>
<path style=" stroke:none;fill-rule:nonzero;fill:rgb(0%,0%,0%);fill-opacity:1;" d="M 434.273438 519.019531 C 433.625 520.46875 429.171875 530.277344 424.367188 540.785156 L 415.613281 559.945312 L 420.367188 559.945312 L 422.917969 554.292969 L 425.46875 548.6875 L 437.675781 548.539062 L 449.886719 548.4375 L 452.386719 554.042969 L 454.9375 559.695312 L 457.238281 559.847656 C 458.492188 559.945312 459.542969 559.796875 459.542969 559.59375 C 459.542969 559.394531 455.1875 549.640625 449.835938 537.933594 L 440.128906 516.667969 L 437.828125 516.519531 L 435.476562 516.367188 Z M 442.78125 532.429688 C 445.433594 538.332031 447.734375 543.484375 447.882812 543.785156 C 448.082031 544.285156 445.882812 544.4375 437.777344 544.4375 C 428.121094 544.4375 427.421875 544.386719 427.769531 543.535156 C 428.472656 541.734375 437.726562 521.421875 437.777344 521.570312 C 437.828125 521.621094 440.078125 526.523438 442.78125 532.429688 Z M 442.78125 532.429688 "/>
<path style=" stroke:none;fill-rule:nonzero;fill:rgb(0%,0%,0%);fill-opacity:1;" d="M 467.046875 538.132812 L 467.046875 559.945312 L 471.546875 559.945312 L 471.546875 545.9375 L 487.007812 545.9375 L 491.863281 552.941406 L 496.765625 559.945312 L 499.167969 559.945312 C 501.019531 559.945312 501.519531 559.796875 501.269531 559.296875 C 501.066406 558.996094 498.765625 555.691406 496.214844 552.039062 C 493.664062 548.386719 491.5625 545.1875 491.5625 544.984375 C 491.5625 544.734375 492.0625 544.4375 492.710938 544.285156 C 494.8125 543.734375 497.867188 540.984375 499.367188 538.332031 C 500.667969 535.929688 500.816406 535.230469 500.816406 531.175781 C 500.816406 525.875 499.917969 523.671875 496.414062 520.621094 C 492.460938 517.167969 490.761719 516.769531 478.203125 516.519531 L 467.046875 516.316406 Z M 490.859375 521.769531 C 493.460938 523.171875 495.363281 525.375 496.066406 527.824219 C 497.515625 533.230469 495.5625 538.082031 490.859375 540.582031 C 489.011719 541.585938 487.910156 541.683594 480.203125 541.835938 L 471.546875 542.035156 L 471.546875 520.320312 L 480.203125 520.519531 C 487.910156 520.671875 489.011719 520.769531 490.859375 521.769531 Z M 490.859375 521.769531 "/>
<path style=" stroke:none;fill-rule:nonzero;fill:rgb(0%,0%,0%);fill-opacity:1;" d="M 512.074219 538.183594 L 512.074219 559.945312 L 516.578125 559.945312 L 516.578125 548.6875 L 520.980469 544.285156 C 523.382812 541.882812 525.484375 539.933594 525.632812 539.933594 C 525.734375 539.933594 529.785156 544.4375 534.589844 549.9375 L 543.292969 559.945312 L 546.046875 559.945312 C 548.597656 559.945312 548.699219 559.894531 547.996094 559.046875 C 547.597656 558.59375 543.195312 553.441406 538.191406 547.589844 C 533.1875 541.734375 529.085938 536.78125 529.085938 536.53125 C 529.085938 536.28125 533.136719 531.726562 538.089844 526.472656 C 543.042969 521.171875 547.097656 516.769531 547.097656 516.617188 C 547.097656 516.519531 545.996094 516.417969 544.644531 516.417969 L 542.195312 516.417969 L 529.785156 529.425781 C 522.933594 536.582031 517.179688 542.433594 516.976562 542.433594 C 516.726562 542.433594 516.578125 536.582031 516.578125 529.425781 L 516.578125 516.417969 L 512.074219 516.417969 Z M 512.074219 538.183594 "/>
<path style=" stroke:none;fill-rule:nonzero;fill:rgb(0%,0%,0%);fill-opacity:1;" d="M 556.601562 538.183594 L 556.601562 559.945312 L 587.671875 559.945312 L 587.523438 558.042969 L 587.371094 556.195312 L 574.265625 556.042969 L 561.105469 555.941406 L 561.105469 539.933594 L 583.621094 539.933594 L 583.621094 535.929688 L 561.105469 535.929688 L 561.105469 520.421875 L 573.765625 520.320312 L 586.371094 520.171875 L 586.523438 518.269531 L 586.671875 516.417969 L 556.601562 516.417969 Z M 556.601562 538.183594 "/>
<path style=" stroke:none;fill-rule:nonzero;fill:rgb(0%,0%,0%);fill-opacity:1;" d="M 591.226562 518.269531 L 591.375 520.171875 L 599.03125 520.320312 L 606.636719 520.46875 L 606.636719 559.945312 L 611.136719 559.945312 L 611.136719 520.46875 L 618.792969 520.320312 L 626.398438 520.171875 L 626.546875 518.269531 L 626.699219 516.417969 L 591.074219 516.417969 Z M 591.226562 518.269531 "/>
</g>
</svg>