<svg xmlns="http://www.w3.org/2000/svg" version="1.0" preserveAspectRatio="xMidYMid meet" viewBox="318 971.09 939.1 88.81">

<g transform="translate(0.000000,1563.000000) scale(0.100000,-0.100000)" fill="#000000" stroke="none">

<path d="M4635 5906 c-110 -26 -216 -101 -272 -190 -87 -137 -87 -345 0 -482 117 -186 381 -257 594 -159 75 34 167 125 203 200 59 124 59 276 0 400 -36 75 -128 166 -203 200 -96 45 -219 56 -322 31z m277 -99 c66 -32 141 -109 171 -175 18 -39 22 -65 22 -157 0 -92 -4 -118 -22 -157 -30 -66 -105 -143 -172 -175 -50 -25 -67 -28 -161 -28 -95 0 -111 3 -162 28 -73 36 -150 119 -177 192 -29 76 -29 203 -1 279 21 56 79 130 131 167 60 43 127 60 225 56 74 -2 100 -8 146 -30z"/>
<path d="M4807 5724 c-4 -4 -7 -23 -7 -42 0 -19 -7 -49 -16 -68 -15 -31 -15 -40 -2 -86 8 -29 19 -53 25 -55 35 -12 75 152 55 222 -8 29 -39 45 -55 29z"/>
<path d="M4563 5683 c-4 -15 -8 -62 -8 -103 0 -74 0 -75 27 -78 33 -4 48 25 47 91 -1 89 -49 154 -66 90z"/>
<path d="M4834 5354 c-29 -20 -115 -29 -152 -16 -25 8 -32 8 -36 -5 -9 -23 -9 -23 47 -49 65 -29 102 -21 140 29 44 60 45 72 1 41z"/>
<path d="M3180 5475 l0 -435 45 0 45 0 2 337 3 338 168 -283 c140 -235 171 -282 190 -282 18 0 50 49 187 281 l165 281 3 -336 2 -336 45 0 45 0 0 435 0 435 -37 0 -38 -1 -184 -321 c-166 -289 -186 -319 -198 -302 -7 10 -93 155 -190 321 l-176 303 -38 0 -39 0 0 -435z"/>
<path d="M5410 5475 l0 -435 45 0 45 0 2 347 3 346 278 -346 278 -347 39 0 40 0 0 435 0 435 -45 0 -45 0 0 -351 c0 -211 -4 -348 -9 -344 -5 3 -132 160 -282 350 l-272 345 -38 0 -39 0 0 -435z"/>
<path d="M6420 5475 l0 -435 45 0 45 0 0 113 0 112 88 88 c48 48 90 87 93 87 2 0 83 -90 179 -200 l174 -200 55 0 c51 0 53 1 39 18 -8 9 -96 112 -196 229 -100 117 -182 216 -182 221 0 5 81 96 180 201 99 106 180 194 180 197 0 2 -22 4 -49 4 l-49 0 -248 -260 c-137 -143 -252 -260 -256 -260 -5 0 -8 117 -8 260 l0 260 -45 0 -45 0 0 -435z"/>
<path d="M7300 5475 l0 -435 45 0 45 0 2 337 3 338 168 -283 c140 -235 171 -282 190 -282 18 0 51 49 187 281 l165 281 3 -336 2 -336 45 0 45 0 0 435 0 435 -37 0 -38 -1 -184 -321 c-166 -289 -186 -319 -198 -302 -7 10 -93 155 -190 321 l-176 303 -38 0 -39 0 0 -435z"/>
<path d="M8725 5858 c-13 -29 -102 -225 -198 -435 l-175 -383 48 0 47 0 51 113 51 112 244 3 244 2 50 -112 51 -113 46 -3 c25 -2 46 1 46 5 0 4 -87 199 -194 433 l-194 425 -46 3 -47 3 -24 -53z m170 -268 c53 -118 99 -221 102 -227 4 -10 -40 -13 -202 -13 -193 0 -207 1 -200 18 14 36 199 442 200 439 1 -1 46 -99 100 -217z"/>
<path d="M9380 5476 l0 -436 45 0 45 0 0 140 0 140 154 0 155 0 97 -140 98 -140 48 0 c37 0 47 3 42 13 -4 6 -50 72 -101 145 -51 73 -93 137 -93 141 0 5 10 11 23 14 42 11 103 66 133 119 26 48 29 62 29 143 0 106 -18 150 -88 211 -79 69 -113 77 -364 82 l-223 4 0 -436z m476 327 c52 -28 90 -72 104 -121 29 -108 -10 -205 -104 -255 -37 -20 -59 -22 -213 -25 l-173 -4 0 217 0 217 173 -4 c154 -3 176 -5 213 -25z"/>
<path d="M10280 5475 l0 -435 45 0 45 0 0 113 0 112 88 88 c48 48 90 87 93 87 2 0 83 -90 179 -200 l174 -200 55 0 c51 0 53 1 39 18 -8 9 -96 112 -196 229 -100 117 -182 216 -182 221 0 5 81 96 180 201 99 106 180 194 180 197 0 2 -22 4 -49 4 l-49 0 -248 -260 c-137 -143 -252 -260 -256 -260 -5 0 -8 117 -8 260 l0 260 -45 0 -45 0 0 -435z"/>
<path d="M11170 5475 l0 -435 311 0 310 0 -3 38 -3 37 -262 3 -263 2 0 160 0 160 225 0 225 0 0 40 0 40 -225 0 -225 0 0 155 0 155 253 2 252 3 3 38 3 37 -300 0 -301 0 0 -435z"/>
<path d="M11862 5873 l3 -38 153 -3 152 -3 0 -394 0 -395 45 0 45 0 0 395 0 394 153 3 152 3 3 38 3 37 -356 0 -356 0 3 -37z"/>
</g>
</svg>